<?xml version="1.0" encoding="UTF-8"?>
<!DOCTYPE svg PUBLIC "-//W3C//DTD SVG 1.1//EN" "http://www.w3.org/Graphics/SVG/1.1/DTD/svg11.dtd">
<!-- Creator: CorelDRAW -->
<svg xmlns="http://www.w3.org/2000/svg" xml:space="preserve" width="6.82666in" height="6.82666in" style="shape-rendering:geometricPrecision; text-rendering:geometricPrecision; image-rendering:optimizeQuality; fill-rule:evenodd; clip-rule:evenodd"
viewBox="0 0 6.82666 6.82666"
 xmlns:xlink="http://www.w3.org/1999/xlink">
 <defs>
  <style type="text/css">
   <![CDATA[
    .fil0 {fill:none}
    .fil7 {fill:#4E342E}
    .fil6 {fill:#D32F2F}
    .fil5 {fill:#EF5350}
    .fil1 {fill:#00897B;fill-rule:nonzero}
    .fil2 {fill:#4DB6AC;fill-rule:nonzero}
    .fil4 {fill:#6D4C41;fill-rule:nonzero}
    .fil8 {fill:#80DEEA;fill-rule:nonzero}
    .fil3 {fill:#E0F7FA;fill-rule:nonzero}
   ]]>
  </style>
 </defs>
 <g id="Layer_x0020_1">
  <metadata id="CorelCorpID_0Corel-Layer"/>
  <g id="_248888392">
   <rect id="_248888776" class="fil0" width="6.82666" height="6.82666"/>
   <rect id="_248888416" class="fil0" x="0.853331" y="0.853331" width="5.12" height="5.12"/>
  </g>
  <g id="_248886496">
   <polygon id="_248888320" class="fil1" points="5.49367,3.15439 5.49367,5.3623 5.49367,5.4543 5.49367,5.56651 5.38607,5.56651 5.27647,5.56651 1.55019,5.56651 1.44059,5.56651 1.33299,5.56651 1.33299,5.4543 1.33299,5.3623 1.33299,3.15439 1.33299,3.06239 1.33299,2.95018 1.44059,2.95018 1.55019,2.95018 5.27647,2.95018 5.38607,2.95018 5.49367,2.95018 5.49367,3.06239 "/>
   <polygon id="_248888536" class="fil2" points="1.08563,5.52842 5.79828,5.52842 5.79828,5.74761 1.08563,5.74761 "/>
   <polygon id="_248888728" class="fil3" points="5.27847,5.34208 5.27847,3.12447 5.27647,3.12447 1.55019,3.12447 1.54819,3.12447 1.54819,5.34208 1.55019,5.34208 5.27647,5.34208 "/>
   <polygon id="_248888296" class="fil4" points="2.78821,5.34208 2.78821,3.12447 2.78755,3.12447 1.54885,3.12447 1.54819,3.12447 1.54819,5.34208 1.54885,5.34208 2.78755,5.34208 "/>
   <polygon id="_248887696" class="fil1" points="2.94249,3.05178 2.94249,5.52842 2.78821,5.52842 2.78821,3.05178 "/>
   <path id="_248887648" class="fil5" d="M5.35684 1.07905l0.616488 2.08633c-1.70667,0 -3.41333,0 -5.12,0l0.616488 -2.08633c1.29567,0 2.59135,0 3.88702,0z"/>
   <polygon id="_248887624" class="fil6" points="4.56494,1.07905 4.79063,1.07905 5.21701,3.16538 4.99131,3.16538 "/>
   <polygon id="_248888104" class="fil6" points="3.94018,1.07905 4.16028,1.07905 4.37504,3.16538 4.15494,3.16538 "/>
   <polygon id="_248888080" class="fil6" points="3.31134,1.07905 3.52969,1.07905 3.51545,3.16538 3.29709,3.16538 "/>
   <polygon id="_248887360" class="fil6" points="2.66638,1.07905 2.88648,1.07905 2.67172,3.16538 2.45163,3.16538 "/>
   <polygon id="_248886784" class="fil6" points="2.03603,1.07905 2.26172,1.07905 1.83534,3.16538 1.60965,3.16538 "/>
   <circle id="_248887456" class="fil7" cx="2.6264" cy="4.16596" r="0.104657"/>
   <line id="_248887312" class="fil0" x1="4.47943" y1="3.91913" x2="3.85519" y2= "4.54337" />
   <path id="_248886928" class="fil8" d="M4.52698 3.96668c0.0262598,-0.0262598 0.0262598,-0.0688386 0,-0.0950984 -0.0262598,-0.0262598 -0.0688386,-0.0262598 -0.0950984,0l-0.624236 0.624236c-0.0262598,0.0262559 -0.0262598,0.0688386 0,0.0950984 0.0262598,0.0262559 0.0688425,0.0262559 0.0950984,0l0.624236 -0.624236z"/>
   <line id="_248887264" class="fil0" x1="4.47943" y1="4.2225" x2="4.14107" y2= "4.56085" />
   <path id="_248886856" class="fil8" d="M4.52698 4.27005c0.0262598,-0.0262598 0.0262598,-0.0688386 0,-0.0950984 -0.0262598,-0.0262598 -0.0688386,-0.0262598 -0.0950984,0l-0.338354 0.33835c-0.0262598,0.0262598 -0.0262598,0.0688386 0,0.0950984 0.0262598,0.0262598 0.0688386,0.0262598 0.0950984,0l0.338354 -0.33835z"/>
   <line id="_248887168" class="fil0" x1="4.12945" y1="3.91113" x2="3.7911" y2= "4.24948" />
   <path id="_248886664" class="fil8" d="M4.177 3.95868c0.0262598,-0.0262559 0.0262598,-0.0688386 0,-0.0950984 -0.0262559,-0.0262598 -0.0688386,-0.0262598 -0.0950984,0l-0.33835 0.33835c-0.0262598,0.0262598 -0.0262598,0.0688425 0,0.0950984 0.0262598,0.0262598 0.0688425,0.0262598 0.0950984,0l0.33835 -0.33835z"/>
  </g>
 </g>
</svg>
